<svg xmlns="http://www.w3.org/2000/svg" viewBox="0 0 155 30"><defs><style>.cls-1{fill:#fff;}.cls-2{fill:#8cc63f;}</style></defs><title>logoArtboard 2</title><g id="Layer_2" data-name="Layer 2"><path class="cls-1" d="M57.17,3,49.48,26.62H47.17L39.44,3h2.24l6.66,21.49L55,3Z"/><path class="cls-1" d="M63.45,1.06a1.4,1.4,0,0,1,.41,1,1.4,1.4,0,0,1-.41,1,1.49,1.49,0,0,1-1.1.41,1.45,1.45,0,0,1-1.07-.41,1.4,1.4,0,0,1-.41-1,1.4,1.4,0,0,1,.41-1A1.45,1.45,0,0,1,62.35.64,1.49,1.49,0,0,1,63.45,1.06Zm-.07,7.52v18h-2v-18Z"/><path class="cls-1" d="M82.73,8.58l-6.24,18H74l-6.45-18h2.21l5.48,16.28L80.59,8.58Z"/><path class="cls-1" d="M99.57,18.37h-12A8.4,8.4,0,0,0,89.2,23.6a5,5,0,0,0,3.95,1.71,6.73,6.73,0,0,0,2.5-.43A10.94,10.94,0,0,0,98,23.51l.93,1.28a10.21,10.21,0,0,1-2.76,1.66A8.58,8.58,0,0,1,93,27a6.91,6.91,0,0,1-5.62-2.45,10.33,10.33,0,0,1-2-6.8,13.22,13.22,0,0,1,.88-5,7.52,7.52,0,0,1,2.52-3.35A6.31,6.31,0,0,1,92.6,8.2a6.21,6.21,0,0,1,5.24,2.33,10.25,10.25,0,0,1,1.79,6.4Q99.63,17.68,99.57,18.37Zm-1.9-2.07a7.86,7.86,0,0,0-1.26-4.74,4.35,4.35,0,0,0-3.74-1.71A4.41,4.41,0,0,0,89,11.58a8.88,8.88,0,0,0-1.52,5.24H97.67Z"/><path class="cls-1" d="M114.12,8.4l-.38,1.9a6,6,0,0,0-1.59-.21,3.67,3.67,0,0,0-2.95,1.33,10.89,10.89,0,0,0-1.88,4.16v11h-2v-18h1.73l.17,4a7.21,7.21,0,0,1,2-3.33,4.61,4.61,0,0,1,3.12-1.09A6.64,6.64,0,0,1,114.12,8.4Z"/><path class="cls-1" d="M130.37,3.25a10.42,10.42,0,0,1,3.05,2l-1.21,1.31a9.86,9.86,0,0,0-2.62-1.66,7.65,7.65,0,0,0-2.9-.52,5.48,5.48,0,0,0-3.55,1.09,3.55,3.55,0,0,0-1.35,2.92,3.85,3.85,0,0,0,.5,2.05A4.32,4.32,0,0,0,124,11.87a18.32,18.32,0,0,0,3.35,1.29,19.19,19.19,0,0,1,3.79,1.55,6.09,6.09,0,0,1,2.24,2.14,6.31,6.31,0,0,1,.79,3.31,6.59,6.59,0,0,1-1,3.55,6.47,6.47,0,0,1-2.74,2.41,9.34,9.34,0,0,1-4.12.86,10.6,10.6,0,0,1-7.55-3l1.17-1.31a11.54,11.54,0,0,0,2.93,1.88,8.57,8.57,0,0,0,3.42.64,6.25,6.25,0,0,0,4.16-1.35,4.52,4.52,0,0,0,1.6-3.66,4.74,4.74,0,0,0-.53-2.38,4.43,4.43,0,0,0-1.72-1.6,18.41,18.41,0,0,0-3.36-1.36,13.45,13.45,0,0,1-5.17-2.55A5.12,5.12,0,0,1,119.7,8.4a5.28,5.28,0,0,1,.88-3A5.86,5.86,0,0,1,123,3.35a8.35,8.35,0,0,1,3.6-.74A9.92,9.92,0,0,1,130.37,3.25Z"/><path class="cls-1" d="M151.86,4.73a6.31,6.31,0,0,1,2.26,5.33q0,3.8-2.36,5.57a10.53,10.53,0,0,1-6.47,1.78h-3.38v9.21h-2.07V3h5.55A10.41,10.41,0,0,1,151.86,4.73Zm-1.64,9.71Q152,13.16,152,10.09a4.87,4.87,0,0,0-1.67-4.16,8.1,8.1,0,0,0-4.92-1.26h-3.45v11h3.38A8.19,8.19,0,0,0,150.23,14.44Z"/><path class="cls-2" d="M26.8,20.23c-4.64,4.64-18.9,2.1-18.9,2.1S5.36,8.07,10,3.43,20.06.89,24.7,5.53,31.44,15.59,26.8,20.23Z"/><path class="cls-1" d="M2.9,14.29c3.6-3.6,14.68-1.63,14.68-1.63s2,11.08-1.63,14.68-7.81,2-11.42-1.63S-.71,17.89,2.9,14.29Z"/></g></svg>